<svg xmlns="http://www.w3.org/2000/svg" width="32" height="32" viewBox="0 0 32 32" fill="none">
  <defs>
    <linearGradient id="waveGradient" x1="0%" y1="0%" x2="0%" y2="100%">
      <stop offset="0%" style="stop-color:#FF6B6B;stop-opacity:1" />
      <stop offset="30%" style="stop-color:#FF8E53;stop-opacity:1" />
      <stop offset="70%" style="stop-color:#A855F7;stop-opacity:1" />
      <stop offset="100%" style="stop-color:#6366F1;stop-opacity:1" />
    </linearGradient>
  </defs>
  <path d="M4 20C4 20 8 16 12 18C16 20 16 24 20 22C24 20 28 24 28 24V28H4V20Z" fill="url(#waveGradient)"/>
  <path d="M4 16C4 16 8 12 12 14C16 16 16 20 20 18C24 16 28 20 28 20V24C28 24 24 20 20 22C16 24 16 20 12 18C8 16 4 20 4 20V16Z" fill="url(#waveGradient)" opacity="0.8"/>
  <path d="M4 12C4 12 8 8 12 10C16 12 16 16 20 14C24 12 28 16 28 16V20C28 20 24 16 20 18C16 20 16 16 12 14C8 12 4 16 4 16V12Z" fill="url(#waveGradient)" opacity="0.6"/>
</svg>
